<svg xmlns="http://www.w3.org/2000/svg" x="0px" y="0px"
width="50" height="50"
viewBox="0 0 226 226"
style=" fill:#000000;"><g fill="none" fill-rule="nonzero" stroke="none" stroke-width="1" stroke-linecap="butt" stroke-linejoin="miter" stroke-miterlimit="10" stroke-dasharray="" stroke-dashoffset="0" font-family="none" font-weight="none" font-size="none" text-anchor="none" style="mix-blend-mode: normal"><path d="M0,226v-226h226v226z" fill="none"></path><g fill="#333333"><path d="M141.25,46.82585c-10.40542,0 -18.83333,8.42792 -18.83333,18.83333v37.66666c0,10.40542 8.42792,18.83333 18.83333,18.83333h28.34196l-31.06396,41.73129c-4.61418,6.20558 -0.19084,15.0262 7.55908,15.0262c2.97567,0 5.76094,-1.39691 7.54069,-3.78874l40.40707,-54.27458c2.41067,-3.24875 3.71517,-7.1883 3.71517,-11.23746v-43.95671c0,-10.40542 -8.42792,-18.83333 -18.83333,-18.83333zM47.08333,47.08333c-10.40542,0 -18.83333,8.42792 -18.83333,18.83333v37.66667c0,10.40542 8.42792,18.83333 18.83333,18.83333h28.34196l-30.88004,41.45541c-4.61417,6.215 -0.19084,15.04459 7.55908,15.04459c2.97567,0 5.77933,-1.39691 7.55908,-3.78874l40.20475,-54.01709c2.41067,-3.24875 3.71517,-7.17888 3.71517,-11.23746v-43.95671c0,-10.40542 -8.42792,-18.83333 -18.83333,-18.83333z"></path></g></g></svg>
